<svg class="svg-icon" style="width: 1em; height: 1em;vertical-align: middle;fill: currentColor;overflow: hidden;" viewBox="0 0 1024 1024" version="1.1" xmlns="http://www.w3.org/2000/svg"><path d="M512 853.333333C346.88 853.333333 213.333333 719.786667 213.333333 554.666667 213.333333 389.546667 346.88 256 512 256 677.12 256 810.666667 389.546667 810.666667 554.666667 810.666667 719.786667 677.12 853.333333 512 853.333333M512 170.666667C299.946667 170.666667 128 342.613333 128 554.666667 128 766.72 299.946667 938.666667 512 938.666667 724.053333 938.666667 896 766.72 896 554.666667 896 342.613333 724.053333 170.666667 512 170.666667M533.333333 341.333333 469.333333 341.333333 469.333333 597.333333 672 718.933333 704 666.453333 533.333333 565.333333 533.333333 341.333333M336.213333 144.64 281.6 79.36 85.333333 243.626667 140.373333 308.906667 336.213333 144.64M938.666667 244.053333 742.4 79.36 687.36 144.64 883.626667 309.333333 938.666667 244.053333Z"  /></svg>